<mxfile host="app.diagrams.net" agent="Mozilla/5.0 (Windows NT 10.0; Win64; x64) AppleWebKit/537.36 (KHTML, like Gecko) Chrome/133.0.0.0 Safari/537.36" version="26.1.3">
  <diagram name="Página-1" id="i9XaXvYdxdOAV8TFWX1j">
    <mxGraphModel dx="1615" dy="803" grid="1" gridSize="10" guides="1" tooltips="1" connect="1" arrows="1" fold="1" page="1" pageScale="1" pageWidth="827" pageHeight="1169" math="0" shadow="0">
      <root>
        <mxCell id="0" />
        <mxCell id="1" parent="0" />
        <mxCell id="b1GH7w7uPSiFBpgvMQmm-47" style="edgeStyle=orthogonalEdgeStyle;rounded=0;orthogonalLoop=1;jettySize=auto;html=1;" edge="1" parent="1" source="b1GH7w7uPSiFBpgvMQmm-1">
          <mxGeometry relative="1" as="geometry">
            <mxPoint x="250" y="80" as="targetPoint" />
          </mxGeometry>
        </mxCell>
        <mxCell id="b1GH7w7uPSiFBpgvMQmm-1" value="INÍCIO" style="ellipse;whiteSpace=wrap;html=1;" vertex="1" parent="1">
          <mxGeometry x="10" y="40" width="120" height="80" as="geometry" />
        </mxCell>
        <mxCell id="b1GH7w7uPSiFBpgvMQmm-51" style="edgeStyle=orthogonalEdgeStyle;rounded=0;orthogonalLoop=1;jettySize=auto;html=1;" edge="1" parent="1" target="b1GH7w7uPSiFBpgvMQmm-5">
          <mxGeometry relative="1" as="geometry">
            <mxPoint x="270" y="120" as="sourcePoint" />
          </mxGeometry>
        </mxCell>
        <mxCell id="b1GH7w7uPSiFBpgvMQmm-3" value="Usuário - Analista" style="shape=umlActor;verticalLabelPosition=bottom;verticalAlign=top;html=1;outlineConnect=0;" vertex="1" parent="1">
          <mxGeometry x="252.5" y="40" width="27.5" height="60" as="geometry" />
        </mxCell>
        <mxCell id="b1GH7w7uPSiFBpgvMQmm-9" style="edgeStyle=orthogonalEdgeStyle;rounded=0;orthogonalLoop=1;jettySize=auto;html=1;exitX=0.5;exitY=1;exitDx=0;exitDy=0;entryX=0.5;entryY=0;entryDx=0;entryDy=0;" edge="1" parent="1" source="b1GH7w7uPSiFBpgvMQmm-5" target="b1GH7w7uPSiFBpgvMQmm-8">
          <mxGeometry relative="1" as="geometry" />
        </mxCell>
        <mxCell id="b1GH7w7uPSiFBpgvMQmm-5" value="IMPORTAÇÃO DA &lt;br&gt;PLANILHA" style="shape=parallelogram;perimeter=parallelogramPerimeter;whiteSpace=wrap;html=1;fixedSize=1;labelPadding=0;" vertex="1" parent="1">
          <mxGeometry x="180" y="160" width="180" height="80" as="geometry" />
        </mxCell>
        <mxCell id="b1GH7w7uPSiFBpgvMQmm-31" style="edgeStyle=orthogonalEdgeStyle;rounded=0;orthogonalLoop=1;jettySize=auto;html=1;exitX=0.5;exitY=1;exitDx=0;exitDy=0;entryX=0.5;entryY=0;entryDx=0;entryDy=0;" edge="1" parent="1" source="b1GH7w7uPSiFBpgvMQmm-8" target="b1GH7w7uPSiFBpgvMQmm-30">
          <mxGeometry relative="1" as="geometry" />
        </mxCell>
        <mxCell id="b1GH7w7uPSiFBpgvMQmm-8" value="PRÉ PROCESSAMENTO:&lt;br&gt;Validação da planilha&lt;br&gt;(formato e tamanho do arquivo, tipos de dados dos campos +)" style="shape=process;whiteSpace=wrap;html=1;backgroundOutline=1;" vertex="1" parent="1">
          <mxGeometry x="160" y="280" width="220" height="80" as="geometry" />
        </mxCell>
        <mxCell id="b1GH7w7uPSiFBpgvMQmm-32" style="edgeStyle=orthogonalEdgeStyle;rounded=0;orthogonalLoop=1;jettySize=auto;html=1;exitX=0;exitY=0.5;exitDx=0;exitDy=0;entryX=0.75;entryY=0;entryDx=0;entryDy=0;" edge="1" parent="1" source="b1GH7w7uPSiFBpgvMQmm-30" target="b1GH7w7uPSiFBpgvMQmm-34">
          <mxGeometry relative="1" as="geometry">
            <mxPoint x="90" y="480" as="targetPoint" />
          </mxGeometry>
        </mxCell>
        <mxCell id="b1GH7w7uPSiFBpgvMQmm-33" value="NÃO" style="edgeLabel;html=1;align=center;verticalAlign=middle;resizable=0;points=[];" vertex="1" connectable="0" parent="b1GH7w7uPSiFBpgvMQmm-32">
          <mxGeometry x="-0.1508" relative="1" as="geometry">
            <mxPoint as="offset" />
          </mxGeometry>
        </mxCell>
        <mxCell id="b1GH7w7uPSiFBpgvMQmm-36" style="edgeStyle=orthogonalEdgeStyle;rounded=0;orthogonalLoop=1;jettySize=auto;html=1;exitX=1;exitY=0.5;exitDx=0;exitDy=0;" edge="1" parent="1" source="b1GH7w7uPSiFBpgvMQmm-30" target="b1GH7w7uPSiFBpgvMQmm-35">
          <mxGeometry relative="1" as="geometry" />
        </mxCell>
        <mxCell id="b1GH7w7uPSiFBpgvMQmm-37" value="SIM" style="edgeLabel;html=1;align=center;verticalAlign=middle;resizable=0;points=[];" vertex="1" connectable="0" parent="b1GH7w7uPSiFBpgvMQmm-36">
          <mxGeometry x="0.0887" y="1" relative="1" as="geometry">
            <mxPoint as="offset" />
          </mxGeometry>
        </mxCell>
        <mxCell id="b1GH7w7uPSiFBpgvMQmm-30" value="PLANILHA VÁLIDA?" style="rhombus;whiteSpace=wrap;html=1;" vertex="1" parent="1">
          <mxGeometry x="220" y="400" width="100" height="80" as="geometry" />
        </mxCell>
        <mxCell id="b1GH7w7uPSiFBpgvMQmm-44" style="edgeStyle=orthogonalEdgeStyle;rounded=0;orthogonalLoop=1;jettySize=auto;html=1;exitX=0.333;exitY=0.025;exitDx=0;exitDy=0;entryX=0.5;entryY=1;entryDx=0;entryDy=0;exitPerimeter=0;" edge="1" parent="1" source="b1GH7w7uPSiFBpgvMQmm-34" target="b1GH7w7uPSiFBpgvMQmm-1">
          <mxGeometry relative="1" as="geometry" />
        </mxCell>
        <mxCell id="b1GH7w7uPSiFBpgvMQmm-34" value="ESPECIFICAÇÃO DOS&amp;nbsp;&lt;div&gt;ERROS PARA O USUÁRIO.&lt;br&gt;(linha, coluna, tipo esperado,&amp;nbsp;&lt;/div&gt;&lt;div&gt;formato e tamanho esperados..)&lt;/div&gt;" style="shape=parallelogram;perimeter=parallelogramPerimeter;whiteSpace=wrap;html=1;fixedSize=1;" vertex="1" parent="1">
          <mxGeometry y="520" width="210" height="80" as="geometry" />
        </mxCell>
        <mxCell id="b1GH7w7uPSiFBpgvMQmm-39" style="edgeStyle=orthogonalEdgeStyle;rounded=0;orthogonalLoop=1;jettySize=auto;html=1;" edge="1" parent="1" source="b1GH7w7uPSiFBpgvMQmm-35" target="b1GH7w7uPSiFBpgvMQmm-38">
          <mxGeometry relative="1" as="geometry" />
        </mxCell>
        <mxCell id="b1GH7w7uPSiFBpgvMQmm-42" style="edgeStyle=orthogonalEdgeStyle;rounded=0;orthogonalLoop=1;jettySize=auto;html=1;" edge="1" parent="1" source="b1GH7w7uPSiFBpgvMQmm-35" target="b1GH7w7uPSiFBpgvMQmm-41">
          <mxGeometry relative="1" as="geometry" />
        </mxCell>
        <mxCell id="b1GH7w7uPSiFBpgvMQmm-67" style="edgeStyle=orthogonalEdgeStyle;rounded=0;orthogonalLoop=1;jettySize=auto;html=1;exitX=0.5;exitY=1;exitDx=0;exitDy=0;" edge="1" parent="1" source="b1GH7w7uPSiFBpgvMQmm-35" target="b1GH7w7uPSiFBpgvMQmm-66">
          <mxGeometry relative="1" as="geometry" />
        </mxCell>
        <mxCell id="b1GH7w7uPSiFBpgvMQmm-35" value="SALVAR INFORMAÇÕES DA PLANILHA E DOS REGISTROS DA PLANILHA NO BANCO DE DADOS" style="shape=process;whiteSpace=wrap;html=1;backgroundOutline=1;" vertex="1" parent="1">
          <mxGeometry x="320" y="520" width="209" height="80" as="geometry" />
        </mxCell>
        <mxCell id="b1GH7w7uPSiFBpgvMQmm-53" value="Tabelas que serão utilizadas para leitura e processamento da fila" style="swimlane;whiteSpace=wrap;html=1;startSize=40;" vertex="1" parent="1">
          <mxGeometry x="540" y="320" width="220" height="400" as="geometry" />
        </mxCell>
        <mxCell id="b1GH7w7uPSiFBpgvMQmm-60" value="FLUXO PRECIFICAÇÃO - ETAPA 2 - PROCESSAMENTO ASSINCRONO DA PLANILHA ( FILA )" style="swimlane;whiteSpace=wrap;html=1;" vertex="1" parent="1">
          <mxGeometry x="870" width="910" height="760" as="geometry" />
        </mxCell>
        <mxCell id="b1GH7w7uPSiFBpgvMQmm-87" style="edgeStyle=orthogonalEdgeStyle;rounded=0;orthogonalLoop=1;jettySize=auto;html=1;exitX=1;exitY=0.5;exitDx=0;exitDy=0;" edge="1" parent="b1GH7w7uPSiFBpgvMQmm-60" source="b1GH7w7uPSiFBpgvMQmm-61">
          <mxGeometry relative="1" as="geometry">
            <mxPoint x="190" y="80" as="targetPoint" />
          </mxGeometry>
        </mxCell>
        <mxCell id="b1GH7w7uPSiFBpgvMQmm-61" value="INICIO" style="ellipse;whiteSpace=wrap;html=1;" vertex="1" parent="b1GH7w7uPSiFBpgvMQmm-60">
          <mxGeometry x="20" y="40" width="120" height="80" as="geometry" />
        </mxCell>
        <mxCell id="b1GH7w7uPSiFBpgvMQmm-88" value="" style="edgeStyle=orthogonalEdgeStyle;rounded=0;orthogonalLoop=1;jettySize=auto;html=1;" edge="1" parent="b1GH7w7uPSiFBpgvMQmm-60">
          <mxGeometry relative="1" as="geometry">
            <mxPoint x="205" y="120" as="sourcePoint" />
            <mxPoint x="205" y="150" as="targetPoint" />
          </mxGeometry>
        </mxCell>
        <mxCell id="b1GH7w7uPSiFBpgvMQmm-62" value="CRON - WORKER" style="shape=umlActor;verticalLabelPosition=bottom;verticalAlign=top;html=1;outlineConnect=0;" vertex="1" parent="b1GH7w7uPSiFBpgvMQmm-60">
          <mxGeometry x="190" y="40" width="30" height="60" as="geometry" />
        </mxCell>
        <mxCell id="b1GH7w7uPSiFBpgvMQmm-89" value="" style="edgeStyle=orthogonalEdgeStyle;rounded=0;orthogonalLoop=1;jettySize=auto;html=1;" edge="1" parent="b1GH7w7uPSiFBpgvMQmm-60" source="b1GH7w7uPSiFBpgvMQmm-63" target="b1GH7w7uPSiFBpgvMQmm-65">
          <mxGeometry relative="1" as="geometry" />
        </mxCell>
        <mxCell id="b1GH7w7uPSiFBpgvMQmm-63" value="LEITURA DAS IMPORTAÇÕES PARA PROCESSAMENTO" style="shape=process;whiteSpace=wrap;html=1;backgroundOutline=1;" vertex="1" parent="b1GH7w7uPSiFBpgvMQmm-60">
          <mxGeometry x="130" y="160" width="160" height="80" as="geometry" />
        </mxCell>
        <mxCell id="b1GH7w7uPSiFBpgvMQmm-99" style="edgeStyle=orthogonalEdgeStyle;rounded=0;orthogonalLoop=1;jettySize=auto;html=1;exitX=0;exitY=1;exitDx=0;exitDy=-15;exitPerimeter=0;entryX=1;entryY=0.75;entryDx=0;entryDy=0;" edge="1" parent="b1GH7w7uPSiFBpgvMQmm-60" source="b1GH7w7uPSiFBpgvMQmm-64" target="b1GH7w7uPSiFBpgvMQmm-63">
          <mxGeometry relative="1" as="geometry" />
        </mxCell>
        <mxCell id="b1GH7w7uPSiFBpgvMQmm-64" value="PLANILHAS&lt;div&gt;IMPORTAÇÃO&lt;/div&gt;" style="shape=cylinder3;whiteSpace=wrap;html=1;boundedLbl=1;backgroundOutline=1;size=15;" vertex="1" parent="b1GH7w7uPSiFBpgvMQmm-60">
          <mxGeometry x="360" y="160" width="90" height="80" as="geometry" />
        </mxCell>
        <mxCell id="b1GH7w7uPSiFBpgvMQmm-93" style="edgeStyle=orthogonalEdgeStyle;rounded=0;orthogonalLoop=1;jettySize=auto;html=1;exitX=1;exitY=0.5;exitDx=0;exitDy=0;entryX=0.5;entryY=0;entryDx=0;entryDy=0;" edge="1" parent="b1GH7w7uPSiFBpgvMQmm-60" source="b1GH7w7uPSiFBpgvMQmm-65" target="b1GH7w7uPSiFBpgvMQmm-69">
          <mxGeometry relative="1" as="geometry" />
        </mxCell>
        <mxCell id="b1GH7w7uPSiFBpgvMQmm-94" value="SIM" style="edgeLabel;html=1;align=center;verticalAlign=middle;resizable=0;points=[];" vertex="1" connectable="0" parent="b1GH7w7uPSiFBpgvMQmm-93">
          <mxGeometry x="-0.0145" relative="1" as="geometry">
            <mxPoint x="1" as="offset" />
          </mxGeometry>
        </mxCell>
        <mxCell id="b1GH7w7uPSiFBpgvMQmm-65" value="EXISTE&amp;nbsp;&lt;div&gt;ALGUMA?&lt;/div&gt;" style="rhombus;whiteSpace=wrap;html=1;" vertex="1" parent="b1GH7w7uPSiFBpgvMQmm-60">
          <mxGeometry x="150" y="280" width="120" height="80" as="geometry" />
        </mxCell>
        <mxCell id="b1GH7w7uPSiFBpgvMQmm-68" value="FIM" style="ellipse;whiteSpace=wrap;html=1;" vertex="1" parent="b1GH7w7uPSiFBpgvMQmm-60">
          <mxGeometry x="650" y="620" width="120" height="80" as="geometry" />
        </mxCell>
        <mxCell id="b1GH7w7uPSiFBpgvMQmm-95" value="" style="edgeStyle=orthogonalEdgeStyle;rounded=0;orthogonalLoop=1;jettySize=auto;html=1;" edge="1" parent="b1GH7w7uPSiFBpgvMQmm-60" source="b1GH7w7uPSiFBpgvMQmm-69" target="b1GH7w7uPSiFBpgvMQmm-71">
          <mxGeometry relative="1" as="geometry" />
        </mxCell>
        <mxCell id="b1GH7w7uPSiFBpgvMQmm-96" value="" style="edgeStyle=orthogonalEdgeStyle;rounded=0;orthogonalLoop=1;jettySize=auto;html=1;" edge="1" parent="b1GH7w7uPSiFBpgvMQmm-60" source="b1GH7w7uPSiFBpgvMQmm-69" target="b1GH7w7uPSiFBpgvMQmm-70">
          <mxGeometry relative="1" as="geometry" />
        </mxCell>
        <mxCell id="b1GH7w7uPSiFBpgvMQmm-69" value="LEITURA DOS REGISTROS DE PREÇO PARA PROCESSAMENTO" style="shape=process;whiteSpace=wrap;html=1;backgroundOutline=1;" vertex="1" parent="b1GH7w7uPSiFBpgvMQmm-60">
          <mxGeometry x="130" y="400" width="160" height="80" as="geometry" />
        </mxCell>
        <mxCell id="b1GH7w7uPSiFBpgvMQmm-97" style="edgeStyle=orthogonalEdgeStyle;rounded=0;orthogonalLoop=1;jettySize=auto;html=1;exitX=0;exitY=1;exitDx=0;exitDy=-15;exitPerimeter=0;" edge="1" parent="b1GH7w7uPSiFBpgvMQmm-60" source="b1GH7w7uPSiFBpgvMQmm-70">
          <mxGeometry relative="1" as="geometry">
            <mxPoint x="290" y="465" as="targetPoint" />
          </mxGeometry>
        </mxCell>
        <mxCell id="b1GH7w7uPSiFBpgvMQmm-70" value="PERÇOS&lt;div&gt;IMPORTAÇÃO&lt;/div&gt;" style="shape=cylinder3;whiteSpace=wrap;html=1;boundedLbl=1;backgroundOutline=1;size=15;" vertex="1" parent="b1GH7w7uPSiFBpgvMQmm-60">
          <mxGeometry x="360" y="400" width="90" height="80" as="geometry" />
        </mxCell>
        <mxCell id="b1GH7w7uPSiFBpgvMQmm-78" value="" style="edgeStyle=orthogonalEdgeStyle;rounded=0;orthogonalLoop=1;jettySize=auto;html=1;" edge="1" parent="b1GH7w7uPSiFBpgvMQmm-60" source="b1GH7w7uPSiFBpgvMQmm-71" target="b1GH7w7uPSiFBpgvMQmm-72">
          <mxGeometry relative="1" as="geometry">
            <Array as="points">
              <mxPoint x="140" y="560" />
              <mxPoint x="140" y="650" />
              <mxPoint x="90" y="650" />
            </Array>
          </mxGeometry>
        </mxCell>
        <mxCell id="b1GH7w7uPSiFBpgvMQmm-79" value="NÃO" style="edgeLabel;html=1;align=center;verticalAlign=middle;resizable=0;points=[];" vertex="1" connectable="0" parent="b1GH7w7uPSiFBpgvMQmm-78">
          <mxGeometry x="-0.0389" y="6" relative="1" as="geometry">
            <mxPoint as="offset" />
          </mxGeometry>
        </mxCell>
        <mxCell id="b1GH7w7uPSiFBpgvMQmm-101" style="edgeStyle=orthogonalEdgeStyle;rounded=0;orthogonalLoop=1;jettySize=auto;html=1;exitX=1;exitY=0.5;exitDx=0;exitDy=0;entryX=0;entryY=0.5;entryDx=0;entryDy=0;" edge="1" parent="b1GH7w7uPSiFBpgvMQmm-60" source="b1GH7w7uPSiFBpgvMQmm-71" target="b1GH7w7uPSiFBpgvMQmm-82">
          <mxGeometry relative="1" as="geometry" />
        </mxCell>
        <mxCell id="b1GH7w7uPSiFBpgvMQmm-71" value="EXISTE&amp;nbsp;&lt;div&gt;ALGUM?&lt;/div&gt;" style="rhombus;whiteSpace=wrap;html=1;" vertex="1" parent="b1GH7w7uPSiFBpgvMQmm-60">
          <mxGeometry x="152.5" y="520" width="115" height="80" as="geometry" />
        </mxCell>
        <mxCell id="b1GH7w7uPSiFBpgvMQmm-73" style="edgeStyle=orthogonalEdgeStyle;rounded=0;orthogonalLoop=1;jettySize=auto;html=1;entryX=0.5;entryY=1;entryDx=0;entryDy=0;" edge="1" parent="b1GH7w7uPSiFBpgvMQmm-60" source="b1GH7w7uPSiFBpgvMQmm-72" target="b1GH7w7uPSiFBpgvMQmm-68">
          <mxGeometry relative="1" as="geometry">
            <Array as="points">
              <mxPoint x="30" y="720" />
              <mxPoint x="710" y="720" />
            </Array>
          </mxGeometry>
        </mxCell>
        <mxCell id="b1GH7w7uPSiFBpgvMQmm-72" value="LOGAR ERRO" style="shape=process;whiteSpace=wrap;html=1;backgroundOutline=1;" vertex="1" parent="b1GH7w7uPSiFBpgvMQmm-60">
          <mxGeometry x="10" y="520" width="120" height="80" as="geometry" />
        </mxCell>
        <mxCell id="b1GH7w7uPSiFBpgvMQmm-80" value="1" style="ellipse;whiteSpace=wrap;html=1;aspect=fixed;" vertex="1" parent="b1GH7w7uPSiFBpgvMQmm-60">
          <mxGeometry x="190" y="645" width="30" height="30" as="geometry" />
        </mxCell>
        <mxCell id="b1GH7w7uPSiFBpgvMQmm-103" style="edgeStyle=orthogonalEdgeStyle;rounded=0;orthogonalLoop=1;jettySize=auto;html=1;exitX=0.5;exitY=1;exitDx=0;exitDy=0;entryX=0.5;entryY=0;entryDx=0;entryDy=0;" edge="1" parent="b1GH7w7uPSiFBpgvMQmm-60" source="b1GH7w7uPSiFBpgvMQmm-81" target="b1GH7w7uPSiFBpgvMQmm-83">
          <mxGeometry relative="1" as="geometry" />
        </mxCell>
        <mxCell id="b1GH7w7uPSiFBpgvMQmm-81" value="1" style="ellipse;whiteSpace=wrap;html=1;aspect=fixed;" vertex="1" parent="b1GH7w7uPSiFBpgvMQmm-60">
          <mxGeometry x="580" y="40" width="30" height="30" as="geometry" />
        </mxCell>
        <mxCell id="b1GH7w7uPSiFBpgvMQmm-102" style="edgeStyle=orthogonalEdgeStyle;rounded=0;orthogonalLoop=1;jettySize=auto;html=1;exitX=0.25;exitY=1;exitDx=0;exitDy=0;entryX=0.5;entryY=0;entryDx=0;entryDy=0;" edge="1" parent="b1GH7w7uPSiFBpgvMQmm-60" source="b1GH7w7uPSiFBpgvMQmm-82" target="b1GH7w7uPSiFBpgvMQmm-80">
          <mxGeometry relative="1" as="geometry" />
        </mxCell>
        <mxCell id="b1GH7w7uPSiFBpgvMQmm-82" value="&lt;font style=&quot;color: rgb(255, 255, 255);&quot;&gt;PERSISTE PREÇOS - PRODTUOS - LOJAS - DATAS&lt;/font&gt;" style="shape=process;whiteSpace=wrap;html=1;backgroundOutline=1;strokeColor=#FFFFFF;fillColor=#a20025;fontColor=#ffffff;" vertex="1" parent="b1GH7w7uPSiFBpgvMQmm-60">
          <mxGeometry x="330" y="525" width="150" height="70" as="geometry" />
        </mxCell>
        <mxCell id="b1GH7w7uPSiFBpgvMQmm-104" style="edgeStyle=orthogonalEdgeStyle;rounded=0;orthogonalLoop=1;jettySize=auto;html=1;exitX=1;exitY=0.5;exitDx=0;exitDy=0;" edge="1" parent="b1GH7w7uPSiFBpgvMQmm-60" source="b1GH7w7uPSiFBpgvMQmm-83" target="b1GH7w7uPSiFBpgvMQmm-85">
          <mxGeometry relative="1" as="geometry" />
        </mxCell>
        <mxCell id="b1GH7w7uPSiFBpgvMQmm-105" style="edgeStyle=orthogonalEdgeStyle;rounded=0;orthogonalLoop=1;jettySize=auto;html=1;exitX=0.5;exitY=1;exitDx=0;exitDy=0;entryX=0.5;entryY=0;entryDx=0;entryDy=0;" edge="1" parent="b1GH7w7uPSiFBpgvMQmm-60" source="b1GH7w7uPSiFBpgvMQmm-83" target="b1GH7w7uPSiFBpgvMQmm-68">
          <mxGeometry relative="1" as="geometry" />
        </mxCell>
        <mxCell id="b1GH7w7uPSiFBpgvMQmm-83" value="ALTERA PREÇOS ANTIGOS E EFETIVA OS NOVOS" style="shape=process;whiteSpace=wrap;html=1;backgroundOutline=1;strokeColor=#FFFFFF;fillColor=#a20025;fontColor=#ffffff;" vertex="1" parent="b1GH7w7uPSiFBpgvMQmm-60">
          <mxGeometry x="527.5" y="130" width="135" height="80" as="geometry" />
        </mxCell>
        <mxCell id="b1GH7w7uPSiFBpgvMQmm-85" value="PREÇOS&lt;div&gt;EFETIVADOS&lt;/div&gt;" style="shape=cylinder3;whiteSpace=wrap;html=1;boundedLbl=1;backgroundOutline=1;size=15;" vertex="1" parent="b1GH7w7uPSiFBpgvMQmm-60">
          <mxGeometry x="680" y="230" width="90" height="80" as="geometry" />
        </mxCell>
        <mxCell id="b1GH7w7uPSiFBpgvMQmm-98" style="edgeStyle=orthogonalEdgeStyle;rounded=0;orthogonalLoop=1;jettySize=auto;html=1;exitX=1;exitY=0.25;exitDx=0;exitDy=0;entryX=0;entryY=0;entryDx=0;entryDy=15;entryPerimeter=0;" edge="1" parent="b1GH7w7uPSiFBpgvMQmm-60" source="b1GH7w7uPSiFBpgvMQmm-63" target="b1GH7w7uPSiFBpgvMQmm-64">
          <mxGeometry relative="1" as="geometry" />
        </mxCell>
        <mxCell id="b1GH7w7uPSiFBpgvMQmm-57" value="FLUXO PRECIFICAÇÃO - ETAPA 1 - IMPORTAÇÃO DA PLANILHA" style="swimlane;whiteSpace=wrap;html=1;" vertex="1" parent="1">
          <mxGeometry width="820" height="760" as="geometry" />
        </mxCell>
        <mxCell id="b1GH7w7uPSiFBpgvMQmm-38" value="TABELA PLANILHAS IMPORTAÇÃO:&lt;br&gt;(data, hora, nome do arquivo, hash)" style="shape=cylinder3;whiteSpace=wrap;html=1;boundedLbl=1;backgroundOutline=1;size=15;" vertex="1" parent="b1GH7w7uPSiFBpgvMQmm-57">
          <mxGeometry x="580" y="400" width="150" height="120" as="geometry" />
        </mxCell>
        <mxCell id="b1GH7w7uPSiFBpgvMQmm-41" value="TABELA PREÇOS IMPORTADOS&lt;br&gt;(registros de da planilha)" style="shape=cylinder3;whiteSpace=wrap;html=1;boundedLbl=1;backgroundOutline=1;size=15;" vertex="1" parent="b1GH7w7uPSiFBpgvMQmm-57">
          <mxGeometry x="580" y="560" width="150" height="120" as="geometry" />
        </mxCell>
        <mxCell id="b1GH7w7uPSiFBpgvMQmm-66" value="FIM" style="ellipse;whiteSpace=wrap;html=1;" vertex="1" parent="b1GH7w7uPSiFBpgvMQmm-57">
          <mxGeometry x="220" y="640" width="120" height="80" as="geometry" />
        </mxCell>
      </root>
    </mxGraphModel>
  </diagram>
</mxfile>
